<svg width="64" height="64" viewBox="0 0 64 64" xmlns="http://www.w3.org/2000/svg">
  <title>SCL Logo S3</title>
  <rect x="6" y="6" width="52" height="52" rx="8" fill="#0C2340"/>
  <!-- S -->
  <path fill="#C99700" d="M14 20h16v6H16v6h12c5 0 8 3 8 7s-3 7-8 7H14v-6h14v-4H18c-2 0-4-2-4-4v-6c0-2 2-4 4-4z"/>
  <!-- C -->
  <path fill="#C99700" d="M34.8 23c-4.2 0-7.8 4.4-7.8 9.8 0 5.5 3.6 9.9 7.8 9.9 1.7 0 3-.5 4-1.4v4.9c-1.6 1-3.2 1.5-5 1.5-6.6 0-12.1-6.6-12.1-15.1S28 18 33.8 18c1.8 0 3.4.4 5 1.5v4.9c-1-.9-2.3-1.4-4-1.4z"/>
  <!-- L -->
  <rect x="42" y="24" width="6" height="19" fill="#C99700"/>
  <path fill="#C99700" d="M38 43h14v7h-8.5L38 46.5V43z"/>
</svg>
